<?xml version="1.0" encoding="UTF-8"?>
<!--Generator: Apple Native CoreSVG 175-->
<!DOCTYPE svg
PUBLIC "-//W3C//DTD SVG 1.1//EN"
       "http://www.w3.org/Graphics/SVG/1.1/DTD/svg11.dtd">
<svg version="1.1" xmlns="http://www.w3.org/2000/svg" xmlns:xlink="http://www.w3.org/1999/xlink" width="3300" height="2200">
 <!--glyph: "uni10018A.medium", point size: 100.0, font version: "17.0d11e1", template writer version: "65.1"-->
 <g id="Notes">
  <rect height="2200" id="artboard" style="fill:white;opacity:1" width="3300" x="0" y="0"/>
  <line style="fill:none;stroke:black;opacity:1;stroke-width:0.5;" x1="263" x2="3036" y1="292" y2="292"/>
  <text style="stroke:none;fill:black;font-family:sans-serif;font-size:13;font-weight:bold;" transform="matrix(1 0 0 1 263 322)">Weight/Scale Variations</text>
  <text style="stroke:none;fill:black;font-family:sans-serif;font-size:13;text-anchor:middle;" transform="matrix(1 0 0 1 559.711 322)">Ultralight</text>
  <text style="stroke:none;fill:black;font-family:sans-serif;font-size:13;text-anchor:middle;" transform="matrix(1 0 0 1 856.422 322)">Thin</text>
  <text style="stroke:none;fill:black;font-family:sans-serif;font-size:13;text-anchor:middle;" transform="matrix(1 0 0 1 1153.13 322)">Light</text>
  <text style="stroke:none;fill:black;font-family:sans-serif;font-size:13;text-anchor:middle;" transform="matrix(1 0 0 1 1449.84 322)">Regular</text>
  <text style="stroke:none;fill:black;font-family:sans-serif;font-size:13;text-anchor:middle;" transform="matrix(1 0 0 1 1746.56 322)">Medium</text>
  <text style="stroke:none;fill:black;font-family:sans-serif;font-size:13;text-anchor:middle;" transform="matrix(1 0 0 1 2043.27 322)">Semibold</text>
  <text style="stroke:none;fill:black;font-family:sans-serif;font-size:13;text-anchor:middle;" transform="matrix(1 0 0 1 2339.98 322)">Bold</text>
  <text style="stroke:none;fill:black;font-family:sans-serif;font-size:13;text-anchor:middle;" transform="matrix(1 0 0 1 2636.69 322)">Heavy</text>
  <text style="stroke:none;fill:black;font-family:sans-serif;font-size:13;text-anchor:middle;" transform="matrix(1 0 0 1 2933.4 322)">Black</text>
  <line style="fill:none;stroke:black;opacity:1;stroke-width:0.5;" x1="263" x2="3036" y1="1903" y2="1903"/>
  <g transform="matrix(1 0 0 1 263 1933)">
   <path d="M9.24805 0.830078Q10.8691 0.830078 12.2949 0.214844Q13.7207-0.400391 14.8096-1.49414Q15.8984-2.58789 16.5186-4.01367Q17.1387-5.43945 17.1387-7.05078Q17.1387-8.66211 16.5186-10.0879Q15.8984-11.5137 14.8047-12.6074Q13.7109-13.7012 12.2852-14.3164Q10.8594-14.9316 9.23828-14.9316Q7.62695-14.9316 6.20117-14.3164Q4.77539-13.7012 3.69141-12.6074Q2.60742-11.5137 1.9873-10.0879Q1.36719-8.66211 1.36719-7.05078Q1.36719-5.43945 1.9873-4.01367Q2.60742-2.58789 3.69629-1.49414Q4.78516-0.400391 6.21094 0.214844Q7.63672 0.830078 9.24805 0.830078ZM9.24805-0.654297Q7.91992-0.654297 6.7627-1.14746Q5.60547-1.64062 4.73145-2.51953Q3.85742-3.39844 3.36426-4.56055Q2.87109-5.72266 2.87109-7.05078Q2.87109-8.37891 3.35938-9.54102Q3.84766-10.7031 4.72168-11.582Q5.5957-12.4609 6.75293-12.9541Q7.91016-13.4473 9.23828-13.4473Q10.5762-13.4473 11.7334-12.9541Q12.8906-12.4609 13.7695-11.582Q14.6484-10.7031 15.1465-9.54102Q15.6445-8.37891 15.6445-7.05078Q15.6445-5.72266 15.1514-4.56055Q14.6582-3.39844 13.7842-2.51953Q12.9102-1.64062 11.748-1.14746Q10.5859-0.654297 9.24805-0.654297ZM5.6543-7.05078Q5.6543-6.72852 5.85938-6.52832Q6.06445-6.32812 6.40625-6.32812L8.51562-6.32812L8.51562-4.20898Q8.51562-3.88672 8.71094-3.67676Q8.90625-3.4668 9.23828-3.4668Q9.56055-3.4668 9.77051-3.67676Q9.98047-3.88672 9.98047-4.20898L9.98047-6.32812L12.0898-6.32812Q12.4219-6.32812 12.627-6.52832Q12.832-6.72852 12.832-7.05078Q12.832-7.38281 12.627-7.58789Q12.4219-7.79297 12.0898-7.79297L9.98047-7.79297L9.98047-9.90234Q9.98047-10.2344 9.77051-10.4443Q9.56055-10.6543 9.23828-10.6543Q8.90625-10.6543 8.71094-10.4443Q8.51562-10.2344 8.51562-9.90234L8.51562-7.79297L6.40625-7.79297Q6.06445-7.79297 5.85938-7.58789Q5.6543-7.38281 5.6543-7.05078Z"/>
  </g>
  <g transform="matrix(1 0 0 1 281.867 1933)">
   <path d="M11.709 2.91016Q13.75 2.91016 15.5518 2.12891Q17.3535 1.34766 18.7305-0.0292969Q20.1074-1.40625 20.8887-3.20801Q21.6699-5.00977 21.6699-7.05078Q21.6699-9.0918 20.8887-10.8936Q20.1074-12.6953 18.7305-14.0723Q17.3535-15.4492 15.5469-16.2305Q13.7402-17.0117 11.6992-17.0117Q9.6582-17.0117 7.85645-16.2305Q6.05469-15.4492 4.68262-14.0723Q3.31055-12.6953 2.5293-10.8936Q1.74805-9.0918 1.74805-7.05078Q1.74805-5.00977 2.5293-3.20801Q3.31055-1.40625 4.6875-0.0292969Q6.06445 1.34766 7.86621 2.12891Q9.66797 2.91016 11.709 2.91016ZM11.709 1.25Q9.98047 1.25 8.47656 0.605469Q6.97266-0.0390625 5.83496-1.17676Q4.69727-2.31445 4.05762-3.81836Q3.41797-5.32227 3.41797-7.05078Q3.41797-8.7793 4.05762-10.2832Q4.69727-11.7871 5.83008-12.9297Q6.96289-14.0723 8.4668-14.7119Q9.9707-15.3516 11.6992-15.3516Q13.4277-15.3516 14.9316-14.7119Q16.4355-14.0723 17.5781-12.9297Q18.7207-11.7871 19.3652-10.2832Q20.0098-8.7793 20.0098-7.05078Q20.0098-5.32227 19.3701-3.81836Q18.7305-2.31445 17.5928-1.17676Q16.4551-0.0390625 14.9463 0.605469Q13.4375 1.25 11.709 1.25ZM7.17773-7.05078Q7.17773-6.69922 7.41211-6.47461Q7.64648-6.25 8.01758-6.25L10.8887-6.25L10.8887-3.36914Q10.8887-2.99805 11.1133-2.76855Q11.3379-2.53906 11.6895-2.53906Q12.0605-2.53906 12.29-2.76855Q12.5195-2.99805 12.5195-3.36914L12.5195-6.25L15.4004-6.25Q15.7715-6.25 16.001-6.47461Q16.2305-6.69922 16.2305-7.05078Q16.2305-7.42188 16.001-7.65137Q15.7715-7.88086 15.4004-7.88086L12.5195-7.88086L12.5195-10.752Q12.5195-11.1328 12.29-11.3623Q12.0605-11.5918 11.6895-11.5918Q11.3379-11.5918 11.1133-11.3574Q10.8887-11.123 10.8887-10.752L10.8887-7.88086L8.01758-7.88086Q7.63672-7.88086 7.40723-7.65137Q7.17773-7.42188 7.17773-7.05078Z"/>
  </g>
  <g transform="matrix(1 0 0 1 305.646 1933)">
   <path d="M14.9707 5.66406Q17.0605 5.66406 18.96 5.01465Q20.8594 4.36523 22.4512 3.19336Q24.043 2.02148 25.2197 0.429688Q26.3965-1.16211 27.0459-3.06641Q27.6953-4.9707 27.6953-7.05078Q27.6953-9.14062 27.0459-11.04Q26.3965-12.9395 25.2197-14.5312Q24.043-16.123 22.4512-17.2998Q20.8594-18.4766 18.9551-19.126Q17.0508-19.7754 14.9609-19.7754Q12.8711-19.7754 10.9717-19.126Q9.07227-18.4766 7.48535-17.2998Q5.89844-16.123 4.72168-14.5312Q3.54492-12.9395 2.90039-11.04Q2.25586-9.14062 2.25586-7.05078Q2.25586-4.9707 2.90527-3.06641Q3.55469-1.16211 4.72656 0.429688Q5.89844 2.02148 7.49023 3.19336Q9.08203 4.36523 10.9814 5.01465Q12.8809 5.66406 14.9707 5.66406ZM14.9707 3.84766Q13.1641 3.84766 11.5283 3.2959Q9.89258 2.74414 8.53516 1.74805Q7.17773 0.751953 6.17676-0.610352Q5.17578-1.97266 4.62891-3.6084Q4.08203-5.24414 4.08203-7.05078Q4.08203-8.86719 4.62891-10.5029Q5.17578-12.1387 6.17188-13.501Q7.16797-14.8633 8.52539-15.8594Q9.88281-16.8555 11.5186-17.4023Q13.1543-17.9492 14.9609-17.9492Q16.7773-17.9492 18.4131-17.4023Q20.0488-16.8555 21.4111-15.8594Q22.7734-14.8633 23.7695-13.501Q24.7656-12.1387 25.3174-10.5029Q25.8691-8.86719 25.8691-7.05078Q25.8789-5.24414 25.332-3.6084Q24.7852-1.97266 23.7842-0.610352Q22.7832 0.751953 21.4209 1.74805Q20.0586 2.74414 18.4229 3.2959Q16.7871 3.84766 14.9707 3.84766ZM9.19922-7.05078Q9.19922-6.66992 9.45801-6.4209Q9.7168-6.17188 10.1172-6.17188L14.0625-6.17188L14.0625-2.2168Q14.0625-1.81641 14.3115-1.55762Q14.5605-1.29883 14.9512-1.29883Q15.3516-1.29883 15.6104-1.55273Q15.8691-1.80664 15.8691-2.2168L15.8691-6.17188L19.8242-6.17188Q20.2246-6.17188 20.4785-6.4209Q20.7324-6.66992 20.7324-7.05078Q20.7324-7.46094 20.4785-7.71484Q20.2246-7.96875 19.8242-7.96875L15.8691-7.96875L15.8691-11.9141Q15.8691-12.3242 15.6104-12.583Q15.3516-12.8418 14.9512-12.8418Q14.5605-12.8418 14.3115-12.583Q14.0625-12.3242 14.0625-11.9141L14.0625-7.96875L10.1172-7.96875Q9.70703-7.96875 9.45312-7.71484Q9.19922-7.46094 9.19922-7.05078Z"/>
  </g>
  <text style="stroke:none;fill:black;font-family:sans-serif;font-size:13;font-weight:bold;" transform="matrix(1 0 0 1 263 1953)">Design Variations</text>
  <text style="stroke:none;fill:black;font-family:sans-serif;font-size:13;" transform="matrix(1 0 0 1 263 1971)">Symbols are supported in up to nine weights and three scales.</text>
  <text style="stroke:none;fill:black;font-family:sans-serif;font-size:13;" transform="matrix(1 0 0 1 263 1989)">For optimal layout with text and other symbols, vertically align</text>
  <text style="stroke:none;fill:black;font-family:sans-serif;font-size:13;" transform="matrix(1 0 0 1 263 2007)">symbols with the adjacent text.</text>
  <line style="fill:none;stroke:#00AEEF;stroke-width:0.5;opacity:1.0;" x1="776" x2="776" y1="1919" y2="1933"/>
  <g transform="matrix(1 0 0 1 776 1933)">
   <path d="M3.31055 0.15625Q3.70117 0.15625 3.91602-0.00976562Q4.13086-0.175781 4.26758-0.585938L5.52734-4.0332L11.2891-4.0332L12.5488-0.585938Q12.6855-0.175781 12.9004-0.00976562Q13.1152 0.15625 13.4961 0.15625Q13.8867 0.15625 14.1162-0.0585938Q14.3457-0.273438 14.3457-0.644531Q14.3457-0.869141 14.2383-1.17188L9.6582-13.3691Q9.48242-13.8184 9.17969-14.043Q8.87695-14.2676 8.4082-14.2676Q7.5-14.2676 7.17773-13.3789L2.59766-1.16211Q2.49023-0.859375 2.49023-0.634766Q2.49023-0.263672 2.70996-0.0537109Q2.92969 0.15625 3.31055 0.15625ZM6.00586-5.51758L8.37891-12.0898L8.42773-12.0898L10.8008-5.51758Z"/>
  </g>
  <line style="fill:none;stroke:#00AEEF;stroke-width:0.5;opacity:1.0;" x1="793.197" x2="793.197" y1="1919" y2="1933"/>
  <text style="stroke:none;fill:black;font-family:sans-serif;font-size:13;font-weight:bold;" transform="matrix(1 0 0 1 776 1953)">Margins</text>
  <text style="stroke:none;fill:black;font-family:sans-serif;font-size:13;" transform="matrix(1 0 0 1 776 1971)">Leading and trailing margins on the left and right side of each symbol</text>
  <text style="stroke:none;fill:black;font-family:sans-serif;font-size:13;" transform="matrix(1 0 0 1 776 1989)">can be adjusted by modifying the x-location of the margin guidelines.</text>
  <text style="stroke:none;fill:black;font-family:sans-serif;font-size:13;" transform="matrix(1 0 0 1 776 2007)">Modifications are automatically applied proportionally to all</text>
  <text style="stroke:none;fill:black;font-family:sans-serif;font-size:13;" transform="matrix(1 0 0 1 776 2025)">scales and weights.</text>
  <g transform="matrix(1 0 0 1 1289 1933)">
   <path d="M2.8418 1.86523L4.54102 3.57422Q5.18555 4.22852 5.90332 4.17969Q6.62109 4.13086 7.31445 3.35938L18.0078-8.42773L17.041-9.4043L6.42578 2.27539Q6.16211 2.57812 5.89355 2.61719Q5.625 2.65625 5.27344 2.30469L4.10156 1.14258Q3.75 0.791016 3.79395 0.522461Q3.83789 0.253906 4.14062-0.0195312L15.6152-10.8203L14.6387-11.7871L3.04688-0.898438Q2.30469-0.214844 2.25098 0.498047Q2.19727 1.21094 2.8418 1.86523ZM9.25781-16.3281Q8.94531-16.0254 8.90625-15.6348Q8.86719-15.2441 9.04297-14.9512Q9.21875-14.6777 9.55566-14.541Q9.89258-14.4043 10.3809-14.5215Q11.4746-14.7754 12.5977-14.7314Q13.7207-14.6875 14.7949-13.9844L14.209-12.5293Q13.9551-11.9043 14.0674-11.4404Q14.1797-10.9766 14.5801-10.5664L16.875-8.25195Q17.2363-7.88086 17.5781-7.82227Q17.9199-7.76367 18.3398-7.8418L19.4043-8.03711L20.0684-7.36328L20.0293-6.80664Q20-6.43555 20.1221-6.12305Q20.2441-5.81055 20.6055-5.44922L21.3672-4.70703Q21.7285-4.3457 22.1533-4.33105Q22.5781-4.31641 22.9297-4.66797L25.8398-7.58789Q26.1914-7.93945 26.1816-8.35449Q26.1719-8.76953 25.8105-9.13086L25.0391-9.89258Q24.6875-10.2539 24.3799-10.3857Q24.0723-10.5176 23.7109-10.4883L23.1348-10.4395L22.4902-11.0742L22.7344-12.1973Q22.832-12.6172 22.6953-12.9834Q22.5586-13.3496 22.1191-13.7891L19.9219-15.9766Q18.6719-17.2168 17.2607-17.8369Q15.8496-18.457 14.4189-18.4814Q12.9883-18.5059 11.665-17.959Q10.3418-17.4121 9.25781-16.3281ZM10.752-15.957Q11.6602-16.6211 12.7002-16.9043Q13.7402-17.1875 14.8047-17.085Q15.8691-16.9824 16.8701-16.5137Q17.8711-16.0449 18.7012-15.2051L21.1328-12.793Q21.3086-12.6172 21.3525-12.4512Q21.3965-12.2852 21.3379-12.0312L21.0156-10.5469L22.5195-9.0625L23.5059-9.12109Q23.6914-9.13086 23.7891-9.09668Q23.8867-9.0625 24.0332-8.91602L24.6094-8.33984L22.168-5.89844L21.5918-6.47461Q21.4453-6.62109 21.4062-6.71875Q21.3672-6.81641 21.377-7.01172L21.4453-7.98828L19.9512-9.47266L18.4277-9.21875Q18.1836-9.16992 18.042-9.2041Q17.9004-9.23828 17.7148-9.41406L15.7129-11.416Q15.5176-11.5918 15.4932-11.7529Q15.4688-11.9141 15.5859-12.1875L16.4648-14.2773Q15.293-15.3711 13.8281-15.791Q12.3633-16.2109 10.8398-15.7617Q10.7227-15.7324 10.6885-15.8057Q10.6543-15.8789 10.752-15.957Z"/>
  </g>
  <text style="stroke:none;fill:black;font-family:sans-serif;font-size:13;font-weight:bold;" transform="matrix(1 0 0 1 1289 1953)">Exporting</text>
  <text style="stroke:none;fill:black;font-family:sans-serif;font-size:13;" transform="matrix(1 0 0 1 1289 1971)">Symbols should be outlined when exporting to ensure the</text>
  <text style="stroke:none;fill:black;font-family:sans-serif;font-size:13;" transform="matrix(1 0 0 1 1289 1989)">design is preserved when submitting to Xcode.</text>
  <text id="template-version" style="stroke:none;fill:black;font-family:sans-serif;font-size:13;text-anchor:end;" transform="matrix(1 0 0 1 3036 1933)">Template v.2.0</text>
  <text style="stroke:none;fill:black;font-family:sans-serif;font-size:13;text-anchor:end;" transform="matrix(1 0 0 1 3036 1951)">Requires Xcode 13 or greater</text>
  <text id="descriptive-name" style="stroke:none;fill:black;font-family:sans-serif;font-size:13;text-anchor:end;" transform="matrix(1 0 0 1 3036 1969)">Generated from chevron.right</text>
  <text style="stroke:none;fill:black;font-family:sans-serif;font-size:13;text-anchor:end;" transform="matrix(1 0 0 1 3036 1987)">Typeset at 100 points</text>
  <text style="stroke:none;fill:black;font-family:sans-serif;font-size:13;" transform="matrix(1 0 0 1 263 726)">Small</text>
  <text style="stroke:none;fill:black;font-family:sans-serif;font-size:13;" transform="matrix(1 0 0 1 263 1156)">Medium</text>
  <text style="stroke:none;fill:black;font-family:sans-serif;font-size:13;" transform="matrix(1 0 0 1 263 1586)">Large</text>
 </g>
 <g id="Guides">
  <g id="H-reference" style="fill:#27AAE1;stroke:none;" transform="matrix(1 0 0 1 339 696)">
   <path d="M0.976562 0L3.66211 0L29.3457-67.1387L30.0293-67.1387L30.0293-70.459L28.125-70.459ZM11.6699-24.4629L46.9727-24.4629L46.2402-26.709L12.4512-26.709ZM55.127 0L57.7637 0L30.6152-70.459L29.4434-70.459L29.4434-67.1387Z"/>
  </g>
  <line id="Baseline-S" style="fill:none;stroke:#27AAE1;opacity:1;stroke-width:0.5;" x1="263" x2="3036" y1="696" y2="696"/>
  <line id="Capline-S" style="fill:none;stroke:#27AAE1;opacity:1;stroke-width:0.5;" x1="263" x2="3036" y1="625.541" y2="625.541"/>
  <g id="H-reference" style="fill:#27AAE1;stroke:none;" transform="matrix(1 0 0 1 339 1126)">
   <path d="M0.976562 0L3.66211 0L29.3457-67.1387L30.0293-67.1387L30.0293-70.459L28.125-70.459ZM11.6699-24.4629L46.9727-24.4629L46.2402-26.709L12.4512-26.709ZM55.127 0L57.7637 0L30.6152-70.459L29.4434-70.459L29.4434-67.1387Z"/>
  </g>
  <line id="Baseline-M" style="fill:none;stroke:#27AAE1;opacity:1;stroke-width:0.5;" x1="263" x2="3036" y1="1126" y2="1126"/>
  <line id="Capline-M" style="fill:none;stroke:#27AAE1;opacity:1;stroke-width:0.5;" x1="263" x2="3036" y1="1055.54" y2="1055.54"/>
  <g id="H-reference" style="fill:#27AAE1;stroke:none;" transform="matrix(1 0 0 1 339 1556)">
   <path d="M0.976562 0L3.66211 0L29.3457-67.1387L30.0293-67.1387L30.0293-70.459L28.125-70.459ZM11.6699-24.4629L46.9727-24.4629L46.2402-26.709L12.4512-26.709ZM55.127 0L57.7637 0L30.6152-70.459L29.4434-70.459L29.4434-67.1387Z"/>
  </g>
  <line id="Baseline-L" style="fill:none;stroke:#27AAE1;opacity:1;stroke-width:0.5;" x1="263" x2="3036" y1="1556" y2="1556"/>
  <line id="Capline-L" style="fill:none;stroke:#27AAE1;opacity:1;stroke-width:0.5;" x1="263" x2="3036" y1="1485.54" y2="1485.54"/>
  <line id="left-margin" style="fill:none;stroke:#00AEEF;stroke-width:0.5;opacity:1.0;" x1="1413.52" x2="1413.52" y1="1030.79" y2="1150.12"/>
  <line id="right-margin" style="fill:none;stroke:#00AEEF;stroke-width:0.5;opacity:1.0;" x1="1486.17" x2="1486.17" y1="1030.79" y2="1150.12"/>
 </g>
 <g id="Symbols">
  <g id="Black-L" transform="matrix(1 0 0 1 2880.89 1556)">
   <path d="M98.1934-35.2539Q98.1445-38.3789 96.9971-40.9424Q95.8496-43.5059 93.2617-45.9961L47.0215-91.5039Q43.457-95.0684 38.2324-95.0684Q34.668-95.0684 31.7383-93.335Q28.8086-91.6016 27.0508-88.6963Q25.293-85.791 25.293-82.3242Q25.293-76.9531 29.541-72.8516L68.2617-35.3516L29.541 2.29492Q25.293 6.49414 25.293 11.8164Q25.293 15.332 27.0508 18.2373Q28.8086 21.1426 31.7383 22.876Q34.668 24.6094 38.2324 24.6094Q43.457 24.6094 47.0215 20.9961L93.2617-24.5117Q95.8984-27.0508 97.0459-29.6387Q98.1934-32.2266 98.1934-35.2539Z"/>
  </g>
  <g id="Heavy-L" transform="matrix(1 0 0 1 2585.69 1556)">
   <path d="M94.873-35.2539Q94.873-37.8906 93.8965-40.0635Q92.9199-42.2363 90.7715-44.2871L43.6035-90.4785Q40.5273-93.5059 36.0352-93.5059Q33.0078-93.5059 30.5176-92.041Q28.0273-90.5762 26.5137-88.0859Q25-85.5957 25-82.666Q25-78.0762 28.6133-74.6094L69.2383-35.3516L28.6133 4.05273Q25 7.61719 25 12.1094Q25 15.1367 26.5137 17.627Q28.0273 20.1172 30.5176 21.582Q33.0078 23.0469 36.0352 23.0469Q40.5273 23.0469 43.6035 19.9707L90.7715-26.2207Q92.9688-28.3203 93.9209-30.5176Q94.873-32.7148 94.873-35.2539Z"/>
  </g>
  <g id="Bold-L" transform="matrix(1 0 0 1 2290.64 1556)">
   <path d="M91.2109-35.2539Q91.2109-37.3535 90.4297-39.0869Q89.6484-40.8203 87.9883-42.4316L39.7461-89.3066Q37.2559-91.7969 33.6426-91.7969Q31.1523-91.7969 29.1504-90.625Q27.1484-89.4531 25.9277-87.4512Q24.707-85.4492 24.707-83.0078Q24.707-79.3457 27.5391-76.5625L70.3125-35.3027L27.5391 6.00586Q24.707 8.83789 24.707 12.5Q24.707 14.9414 25.9277 16.9434Q27.1484 18.9453 29.1504 20.1416Q31.1523 21.3379 33.6426 21.3379Q37.2559 21.3379 39.7461 18.7988L87.9883-28.125Q89.6973-29.7363 90.4541-31.4941Q91.2109-33.252 91.2109-35.2539Z"/>
  </g>
  <g id="Semibold-L" transform="matrix(1 0 0 1 1995.1 1556)">
   <path d="M88.6719-35.2539Q88.6719-36.9629 88.0371-38.3789Q87.4023-39.7949 86.0352-41.1133L37.1094-88.5254Q35.0098-90.625 31.9336-90.625Q29.8828-90.625 28.1982-89.624Q26.5137-88.623 25.5127-86.9629Q24.5117-85.3027 24.5117-83.252Q24.5117-80.2246 26.8066-77.9297L71.0449-35.3027L26.8066 7.37305Q24.5117 9.66797 24.5117 12.6953Q24.5117 14.7949 25.5127 16.4795Q26.5137 18.1641 28.1982 19.1406Q29.8828 20.1172 31.9336 20.1172Q35.0098 20.1172 37.1094 18.0176L86.0352-29.3945Q87.4023-30.7129 88.0371-32.1533Q88.6719-33.5938 88.6719-35.2539Z"/>
  </g>
  <g id="Medium-L" transform="matrix(1 0 0 1 1699.27 1556)">
   <path d="M86.7188-35.2539Q86.7188-36.7188 86.2061-37.8906Q85.6934-39.0625 84.5703-40.0879L35.1074-87.8906Q33.3008-89.6973 30.6641-89.6973Q28.9062-89.6973 27.4658-88.8672Q26.0254-88.0371 25.1709-86.6211Q24.3164-85.2051 24.3164-83.4473Q24.3164-80.8594 26.2695-78.9551L71.582-35.2539L26.2695 8.39844Q24.3164 10.3516 24.3164 12.8906Q24.3164 14.6973 25.1709 16.1133Q26.0254 17.5293 27.4658 18.3594Q28.9062 19.1895 30.6641 19.1895Q33.3008 19.1895 35.1074 17.3828L84.5703-30.4199Q85.6934-31.4453 86.2061-32.666Q86.7188-33.8867 86.7188-35.2539Z"/>
  </g>
  <g id="Regular-L" transform="matrix(1 0 0 1 1403.7 1556)">
   <path d="M84.2285-35.2539Q84.2285-36.3281 83.8379-37.207Q83.4473-38.0859 82.666-38.8184L32.4707-87.1094Q31.0547-88.5254 29.0039-88.5254Q27.6367-88.5254 26.5381-87.8906Q25.4395-87.2559 24.7803-86.1572Q24.1211-85.0586 24.1211-83.6914Q24.1211-81.7383 25.5371-80.2734L72.3145-35.2539L25.5371 9.7168Q24.1211 11.1816 24.1211 13.1348Q24.1211 14.5508 24.7803 15.6494Q25.4395 16.748 26.5381 17.3828Q27.6367 18.0176 29.0039 18.0176Q31.0547 18.0176 32.4707 16.6016L82.666-31.6895Q83.4473-32.4219 83.8379-33.3252Q84.2285-34.2285 84.2285-35.2539Z"/>
  </g>
  <g id="Light-L" transform="matrix(1 0 0 1 1108.02 1556)">
   <path d="M82.1777-35.2539Q82.1777-36.1328 81.8848-36.792Q81.5918-37.4512 80.957-38.0371L30.4199-85.498Q29.3457-86.5723 27.7832-86.5723Q26.7578-86.5723 25.9277-86.1084Q25.0977-85.6445 24.6094-84.8145Q24.1211-83.9844 24.1211-82.959Q24.1211-81.4941 25.1465-80.4199L73.2422-35.2539L25.1465 9.86328Q24.1211 10.9375 24.1211 12.4023Q24.1211 13.4766 24.6094 14.3066Q25.0977 15.1367 25.9277 15.6006Q26.7578 16.0645 27.7832 16.0645Q29.3457 16.0645 30.4199 14.9902L80.957-32.4707Q81.5918-33.0566 81.8848-33.7402Q82.1777-34.4238 82.1777-35.2539Z"/>
  </g>
  <g id="Thin-L" transform="matrix(1 0 0 1 812.623 1556)">
   <path d="M79.541-35.2539Q79.541-35.8398 79.3213-36.2305Q79.1016-36.6211 78.7109-37.0117L27.6367-83.3984Q27.0508-84.0332 26.1719-84.0332Q25.6348-84.0332 25.1709-83.7891Q24.707-83.5449 24.4141-83.0811Q24.1211-82.6172 24.1211-81.9824Q24.1211-81.1523 24.6582-80.6641L74.4629-35.2539L24.6582 10.1074Q24.1211 10.6445 24.1211 11.4258Q24.1211 12.0605 24.4141 12.5244Q24.707 12.9883 25.1709 13.2568Q25.6348 13.5254 26.1719 13.5254Q27.0508 13.5254 27.6367 12.8906L78.7109-33.5449Q79.1016-33.8867 79.3213-34.3018Q79.541-34.7168 79.541-35.2539Z"/>
  </g>
  <g id="Ultralight-L" transform="matrix(1 0 0 1 516.62 1556)">
   <path d="M78.125-35.2539Q78.125-35.6934 77.9785-35.9619Q77.832-36.2305 77.5391-36.4746L26.2695-82.3242Q25.8789-82.7148 25.3418-82.7148Q25.0488-82.7148 24.7559-82.5684Q24.4629-82.4219 24.292-82.1533Q24.1211-81.8848 24.1211-81.4941Q24.1211-81.0059 24.4141-80.7617L75.0977-35.2539L24.4141 10.2051Q24.1211 10.498 24.1211 10.9375Q24.1211 11.3281 24.292 11.5967Q24.4629 11.8652 24.7559 12.0361Q25.0488 12.207 25.3418 12.207Q25.8789 12.207 26.2695 11.8164L77.5391-34.082Q77.832-34.3262 77.9785-34.5947Q78.125-34.8633 78.125-35.2539Z"/>
  </g>
  <g id="Black-M" transform="matrix(1 0 0 1 2891.75 1126)">
   <path d="M78.2227-35.2539Q78.1738-37.9883 77.1484-40.2588Q76.123-42.5293 73.8281-44.7754L38.7207-79.1504Q35.5957-82.2754 31.0547-82.2754Q28.0273-82.2754 25.4639-80.7617Q22.9004-79.248 21.3623-76.7334Q19.8242-74.2188 19.8242-71.1914Q19.8242-66.5039 23.584-62.9395L52.3926-35.3027L23.584-7.56836Q19.8242-3.90625 19.8242 0.732422Q19.8242 3.75977 21.3623 6.27441Q22.9004 8.78906 25.4639 10.3027Q28.0273 11.8164 31.0547 11.8164Q35.5957 11.8164 38.7207 8.69141L73.8281-25.7324Q76.1719-27.9785 77.1973-30.2734Q78.2227-32.5684 78.2227-35.2539Z"/>
  </g>
  <g id="Heavy-M" transform="matrix(1 0 0 1 2596.28 1126)">
   <path d="M75.4395-35.2539Q75.3906-37.5488 74.5361-39.4775Q73.6816-41.4062 71.7773-43.3105L35.791-78.5156Q33.1055-81.2012 29.1992-81.2012Q26.5625-81.2012 24.3652-79.9072Q22.168-78.6133 20.874-76.4404Q19.5801-74.2676 19.5801-71.6797Q19.5801-67.6758 22.7539-64.5996L53.125-35.3027L22.7539-5.9082Q19.5801-2.7832 19.5801 1.17188Q19.5801 3.80859 20.874 5.95703Q22.168 8.10547 24.3652 9.39941Q26.5625 10.6934 29.1992 10.6934Q33.1055 10.6934 35.791 8.00781L71.7773-27.1973Q73.6816-29.1016 74.5605-31.0303Q75.4395-32.959 75.4395-35.2539Z"/>
  </g>
  <g id="Bold-M" transform="matrix(1 0 0 1 2300.99 1126)">
   <path d="M72.3633-35.2539Q72.3145-37.1094 71.6309-38.6475Q70.9473-40.1855 69.4336-41.6504L32.5684-77.7832Q30.3223-79.9805 27.0996-79.9805Q25-79.9805 23.1934-78.9307Q21.3867-77.8809 20.3369-76.123Q19.2871-74.3652 19.2871-72.2168Q19.2871-68.9453 21.7773-66.5039L53.9551-35.3027L21.7773-4.05273Q19.2871-1.51367 19.2871 1.70898Q19.2871 3.85742 20.3369 5.61523Q21.3867 7.37305 23.1934 8.42285Q25 9.47266 27.0996 9.47266Q30.3223 9.47266 32.5684 7.27539L69.4336-28.9062Q70.9473-30.3711 71.6553-31.9092Q72.3633-33.4473 72.3633-35.2539Z"/>
  </g>
  <g id="Semibold-M" transform="matrix(1 0 0 1 2005.25 1126)">
   <path d="M70.2148-35.2539Q70.166-36.7676 69.6045-38.0371Q69.043-39.3066 67.8223-40.4785L30.2734-77.2461Q28.418-79.1016 25.6836-79.1016Q23.877-79.1016 22.3633-78.2227Q20.8496-77.3438 19.9463-75.8545Q19.043-74.3652 19.043-72.5586Q19.043-69.8242 21.1426-67.7734L54.541-35.2539L21.1426-2.73438Q19.043-0.634766 19.043 2.05078Q19.043 3.90625 19.9463 5.37109Q20.8496 6.83594 22.3633 7.73926Q23.877 8.64258 25.6836 8.64258Q28.418 8.64258 30.2734 6.73828L67.8223-30.0293Q69.043-31.2012 69.6289-32.4951Q70.2148-33.7891 70.2148-35.2539Z"/>
  </g>
  <g id="Medium-M" transform="matrix(1 0 0 1 1709.28 1126)">
   <path d="M68.5547-35.2539Q68.5547-36.5234 68.0664-37.5732Q67.5781-38.623 66.6016-39.5996L28.6133-76.8555Q26.9531-78.4668 24.5605-78.4668Q22.998-78.4668 21.7041-77.71Q20.4102-76.9531 19.6533-75.6836Q18.8965-74.4141 18.8965-72.8516Q18.8965-70.5078 20.6055-68.75L54.9316-35.2539L20.6055-1.75781Q18.8965 0 18.8965 2.34375Q18.8965 3.90625 19.6533 5.17578Q20.4102 6.44531 21.7041 7.20215Q22.998 7.95898 24.5605 7.95898Q26.9531 7.95898 28.6133 6.34766L66.6016-30.9082Q67.627-31.8848 68.0908-32.959Q68.5547-34.0332 68.5547-35.2539Z"/>
  </g>
  <g id="Regular-M" transform="matrix(1 0 0 1 1413.52 1126)">
   <path d="M66.4551-35.2539Q66.4551-36.1816 66.0889-36.9873Q65.7227-37.793 65.0391-38.4766L26.3672-76.3672Q25.0488-77.6367 23.1445-77.6367Q21.9238-77.6367 20.8984-77.0508Q19.873-76.4648 19.2871-75.4639Q18.7012-74.4629 18.7012-73.1934Q18.7012-71.3867 19.9707-70.0195L55.5176-35.2539L19.9707-0.488281Q18.7012 0.878906 18.7012 2.68555Q18.7012 3.95508 19.2871 4.95605Q19.873 5.95703 20.8984 6.54297Q21.9238 7.12891 23.1445 7.12891Q25.0488 7.12891 26.3672 5.81055L65.0391-32.0312Q65.7227-32.7148 66.0889-33.5205Q66.4551-34.3262 66.4551-35.2539Z"/>
  </g>
  <g id="Light-M" transform="matrix(1 0 0 1 1117.71 1126)">
   <path d="M64.5996-35.2539Q64.5996-35.9863 64.3311-36.6211Q64.0625-37.2559 63.5254-37.7441L24.5117-74.9512Q23.4863-75.8789 22.0703-75.8789Q21.1426-75.8789 20.3613-75.4639Q19.5801-75.0488 19.1406-74.2676Q18.7012-73.4863 18.7012-72.5586Q18.7012-71.1914 19.6289-70.166L56.3477-35.2539L19.6289-0.341797Q18.7012 0.683594 18.7012 2.05078Q18.7012 2.97852 19.1406 3.73535Q19.5801 4.49219 20.3613 4.93164Q21.1426 5.37109 22.0703 5.37109Q23.4863 5.37109 24.5117 4.39453L63.5254-32.7637Q64.0625-33.252 64.3311-33.8867Q64.5996-34.5215 64.5996-35.2539Z"/>
  </g>
  <g id="Thin-M" transform="matrix(1 0 0 1 822.194 1126)">
   <path d="M62.207-35.2539Q62.207-35.7422 62.0117-36.1084Q61.8164-36.4746 61.4746-36.8164L22.0215-73.0469Q21.4844-73.584 20.6055-73.584Q20.1172-73.584 19.6777-73.3643Q19.2383-73.1445 18.9697-72.7051Q18.7012-72.2656 18.7012-71.6797Q18.7012-70.8984 19.1895-70.3613L57.4707-35.2539L19.1895-0.146484Q18.7012 0.390625 18.7012 1.17188Q18.7012 1.75781 18.9697 2.17285Q19.2383 2.58789 19.6777 2.83203Q20.1172 3.07617 20.6055 3.07617Q21.4844 3.07617 22.0215 2.49023L61.4746-33.6914Q61.8164-34.0332 62.0117-34.3994Q62.207-34.7656 62.207-35.2539Z"/>
  </g>
  <g id="Ultralight-M" transform="matrix(1 0 0 1 526.117 1126)">
   <path d="M60.9375-35.2539Q60.9375-35.6445 60.8154-35.8887Q60.6934-36.1328 60.4492-36.3281L20.8008-72.1191Q20.4102-72.4121 19.873-72.4121Q19.6289-72.4121 19.3359-72.29Q19.043-72.168 18.8721-71.875Q18.7012-71.582 18.7012-71.2402Q18.7012-70.752 18.9941-70.459L58.0078-35.2539L18.9941-0.0488281Q18.7012 0.244141 18.7012 0.732422Q18.7012 1.07422 18.8721 1.34277Q19.043 1.61133 19.3359 1.75781Q19.6289 1.9043 19.873 1.9043Q20.4102 1.9043 20.8008 1.5625L60.4492-34.1797Q60.6934-34.375 60.8154-34.6436Q60.9375-34.9121 60.9375-35.2539Z"/>
  </g>
  <g id="Black-S" transform="matrix(1 0 0 1 2900.44 696)">
   <path d="M62.0117-35.2539Q61.9629-39.6484 58.3984-43.1152L31.1035-69.7754Q28.5645-72.3145 24.8535-72.3145Q21.0938-72.3145 18.3594-69.6289Q15.625-66.9434 15.625-63.2324Q15.625-59.375 18.7012-56.4453L40.8691-35.3027L18.7012-14.0625Q15.625-11.084 15.625-7.22656Q15.625-3.51562 18.3594-0.830078Q21.0938 1.85547 24.8535 1.85547Q28.5645 1.85547 31.1035-0.683594L58.3984-27.3926Q60.3516-29.248 61.1816-31.1279Q62.0117-33.0078 62.0117-35.2539Z"/>
  </g>
  <g id="Heavy-S" transform="matrix(1 0 0 1 2604.68 696)">
   <path d="M59.8633-35.2539Q59.8145-39.0137 56.8359-41.9434L28.8574-69.3848Q26.6113-71.582 23.3887-71.582Q20.1172-71.582 17.749-69.2627Q15.3809-66.9434 15.3809-63.7207Q15.3809-60.4004 18.0176-57.8613L41.4062-35.3027L18.0176-12.6465Q15.3809-10.0586 15.3809-6.73828Q15.3809-3.51562 17.749-1.19629Q20.1172 1.12305 23.3887 1.12305Q26.6113 1.12305 28.8574-1.07422L56.8359-28.5645Q58.4473-30.127 59.1553-31.7383Q59.8633-33.3496 59.8633-35.2539Z"/>
  </g>
  <g id="Bold-S" transform="matrix(1 0 0 1 2309.05 696)">
   <path d="M57.4707-35.2539Q57.4707-38.2812 55.0781-40.625L26.3184-68.9453Q24.4629-70.8008 21.7773-70.8008Q19.043-70.8008 17.0898-68.8965Q15.1367-66.9922 15.1367-64.2578Q15.1367-61.5234 17.2852-59.4238L41.9922-35.3027L17.2852-11.084Q15.1367-8.98438 15.1367-6.25Q15.1367-3.51562 17.0898-1.58691Q19.043 0.341797 21.7773 0.341797Q24.4629 0.341797 26.3184-1.5625L55.0781-29.8828Q56.3477-31.1523 56.9092-32.4463Q57.4707-33.7402 57.4707-35.2539Z"/>
  </g>
  <g id="Semibold-S" transform="matrix(1 0 0 1 2013.07 696)">
   <path d="M55.8105-35.2539Q55.8105-37.793 53.8574-39.6973L24.5605-68.6523Q22.9492-70.2637 20.6543-70.2637Q18.2617-70.2637 16.6016-68.6279Q14.9414-66.9922 14.9414-64.6484Q14.9414-62.3047 16.748-60.498L42.3828-35.2539L16.748-10.0098Q14.9414-8.20312 14.9414-5.85938Q14.9414-3.51562 16.6016-1.87988Q18.2617-0.244141 20.6543-0.244141Q22.9492-0.244141 24.5605-1.85547L53.8574-30.8105Q54.834-31.8359 55.3223-32.9102Q55.8105-33.9844 55.8105-35.2539Z"/>
  </g>
  <g id="Medium-S" transform="matrix(1 0 0 1 1716.92 696)">
   <path d="M54.541-35.2539Q54.541-37.4023 52.9297-39.0137L23.2422-68.4082Q21.8262-69.8242 19.8242-69.8242Q17.6758-69.8242 16.2598-68.4082Q14.8438-66.9922 14.8438-64.8926Q14.8438-62.8906 16.3574-61.3281L42.7246-35.2539L16.3574-9.17969Q14.8438-7.61719 14.8438-5.56641Q14.8438-3.51562 16.2598-2.09961Q17.6758-0.683594 19.8242-0.683594Q21.8262-0.683594 23.2422-2.09961L52.9297-31.4941Q53.7598-32.3242 54.1504-33.252Q54.541-34.1797 54.541-35.2539Z"/>
  </g>
  <g id="Regular-S" transform="matrix(1 0 0 1 1420.94 696)">
   <path d="M52.9297-35.2539Q52.9297-36.9141 51.709-38.1348L21.5332-68.1152Q20.3613-69.2871 18.7012-69.2871Q16.9434-69.2871 15.7959-68.1396Q14.6484-66.9922 14.6484-65.2832Q14.6484-63.6719 15.8203-62.4023L43.1152-35.2539L15.8203-8.10547Q14.6484-6.83594 14.6484-5.22461Q14.6484-3.51562 15.7959-2.36816Q16.9434-1.2207 18.7012-1.2207Q20.3613-1.2207 21.5332-2.39258L51.709-32.373Q52.2949-33.0078 52.6123-33.7158Q52.9297-34.4238 52.9297-35.2539Z"/>
  </g>
  <g id="Light-S" transform="matrix(1 0 0 1 1125.03 696)">
   <path d="M51.3184-35.2539Q51.3184-36.5723 50.3418-37.5L19.9219-66.8457Q18.9941-67.7734 17.7246-67.7734Q16.4062-67.7734 15.5273-66.8945Q14.6484-66.0156 14.6484-64.6973Q14.6484-63.4766 15.5273-62.5488L43.8477-35.2539L15.5273-7.95898Q14.6484-7.03125 14.6484-5.81055Q14.6484-4.49219 15.5273-3.61328Q16.4062-2.73438 17.7246-2.73438Q18.9941-2.73438 19.9219-3.66211L50.3418-33.0078Q50.8301-33.4961 51.0742-34.0332Q51.3184-34.5703 51.3184-35.2539Z"/>
  </g>
  <g id="Thin-S" transform="matrix(1 0 0 1 829.371 696)">
   <path d="M49.2188-35.2539Q49.2188-36.084 48.5352-36.6699L17.7246-65.1855Q17.1875-65.7227 16.4551-65.7227Q15.7227-65.7227 15.1855-65.2344Q14.6484-64.7461 14.6484-63.9648Q14.6484-63.2324 15.1367-62.6953L44.8242-35.2539L15.1367-7.8125Q14.6484-7.27539 14.6484-6.54297Q14.6484-5.76172 15.1855-5.27344Q15.7227-4.78516 16.4551-4.78516Q17.1875-4.78516 17.7246-5.32227L48.5352-33.8379Q48.8281-34.1309 49.0234-34.4727Q49.2188-34.8145 49.2188-35.2539Z"/>
  </g>
  <g id="Ultralight-S" transform="matrix(1 0 0 1 533.222 696)">
   <path d="M48.0957-35.2539Q48.0957-35.8398 47.6074-36.2305L16.6504-64.3555Q16.2598-64.6973 15.7715-64.6973Q15.332-64.6973 14.9902-64.3799Q14.6484-64.0625 14.6484-63.5742Q14.6484-63.1348 14.9414-62.793L45.3125-35.2539L14.9414-7.71484Q14.6484-7.37305 14.6484-6.93359Q14.6484-6.44531 14.9902-6.12793Q15.332-5.81055 15.7715-5.81055Q16.2598-5.81055 16.6504-6.15234L47.6074-34.2773Q47.8516-34.4727 47.9736-34.6924Q48.0957-34.9121 48.0957-35.2539Z"/>
  </g>
 </g>
</svg>
